<svg width="1211" height="311" viewBox="0 0 1211 311" fill="none" xmlns="http://www.w3.org/2000/svg">
<g clip-path="url(#clip0_977_3)">
<path d="M423.44 142.93C434.12 145.78 441.49 151.82 446.08 161.05C455.08 179.12 446.78 201.37 427.68 208.61C420.68 211.26 412.89 212.74 405.4 212.98C386.43 213.58 367.43 213.17 348.44 213.16C346.79 213.16 345.14 213.16 343.08 213.16V75.07C343.77 74.89 344.39 74.59 345.01 74.6C365.98 74.79 386.99 74.26 407.9 75.48C422.72 76.34 435.72 82.53 442.87 96.77C451.44 113.83 444.08 134.3 428.12 140.56C426.75 141.1 425.48 141.89 423.43 142.94L423.44 142.93ZM371.66 153.66V190.08C382.78 190.08 393.62 190.64 404.36 189.88C411.45 189.38 417.99 186.33 420.39 178.48C423.59 168.03 417.73 157.23 406.5 155.58C395.11 153.92 383.43 154.22 371.66 153.65V153.66ZM371.59 132.1C381.78 132.1 391.76 132.69 401.63 131.93C411.07 131.2 417.05 124.75 417.42 116.8C417.9 106.59 413.54 99.78 403.19 98.55C392.8 97.31 382.14 98.28 371.58 98.28V132.1H371.59Z" fill="black"/>
<path d="M1151.92 178.93C1155.7 169.06 1159.57 159.22 1163.25 149.31C1168.51 135.13 1173.57 120.88 1178.94 106.74C1179.47 105.34 1181.5 103.62 1182.88 103.57C1191.85 103.29 1200.83 103.42 1210.44 103.42C1187.39 158.2 1164.53 212.52 1141.54 267.16H1112.5C1113.27 264.99 1113.87 263.01 1114.67 261.12C1120.95 246.27 1127.17 231.39 1133.67 216.64C1135.08 213.45 1135 210.91 1133.7 207.73C1120.03 174.35 1106.53 140.9 1092.98 107.47C1092.55 106.41 1092.2 105.32 1091.52 103.42C1101.58 103.42 1111.13 103.29 1120.68 103.6C1121.79 103.64 1123.24 105.93 1123.82 107.45C1129.77 122.96 1135.57 138.53 1141.42 154.08C1144.52 162.32 1147.65 170.55 1150.76 178.79C1151.15 178.84 1151.53 178.88 1151.92 178.93Z" fill="black"/>
<path d="M702.33 74.83H783.44V97.23H730.68V131.86H777.71V154.55H730.54V190.09H783.89V212.81H702.32V74.83H702.33Z" fill="black"/>
<path d="M549.47 103.7H577.77V212.79H549.49V201.14C544.77 204.31 540.75 207.71 536.16 209.98C520.65 217.63 493.07 215.87 481.17 199.91C475.74 192.63 472.7 184.54 471.52 175.67C471.17 173.04 471.23 170.35 471.22 167.69C471.2 146.54 471.21 125.39 471.21 103.84H499.31C499.31 105.68 499.31 107.46 499.31 109.23C499.31 128.06 499.12 146.89 499.34 165.72C499.59 186.54 519.51 198 537.9 188.05C546.1 183.61 549.19 176.03 549.3 167.24C549.54 148.25 549.43 129.25 549.47 110.26C549.47 108.27 549.47 106.28 549.47 103.7Z" fill="black"/>
<path d="M916.93 212.86H889.33C889.33 210.8 889.33 208.86 889.33 206.93C889.33 189.26 889.7 171.59 889.15 153.94C888.96 147.85 887.58 141.27 884.8 135.92C880.25 127.17 869.44 124.06 857.55 126.4C848.28 128.23 841.97 134.86 840.38 144.83C839.78 148.59 839.45 152.42 839.42 156.22C839.31 173.22 839.36 190.22 839.36 207.22C839.36 209.01 839.36 210.79 839.36 212.86H811.77V103.73H839.25V116.18C844.39 112.65 848.82 108.89 853.84 106.28C871.17 97.29 894.7 101.55 907.03 115.62C914.32 123.93 916.86 134.25 917.13 144.76C917.69 166.74 917.31 188.75 917.3 210.75C917.3 211.38 917.09 212 916.94 212.87L916.93 212.86Z" fill="black"/>
<path d="M647.92 126.54H600.65V103.76H680.51C679.83 113.57 682.87 123.33 675.2 132.76C661.56 149.54 649.27 167.41 636.43 184.83C635.37 186.27 634.39 187.76 632.76 190.11H681.01V212.81H600.44C600.44 205.89 600.33 198.96 600.54 192.04C600.58 190.76 601.8 189.43 602.67 188.26C616.84 169.13 631.05 150.03 645.23 130.9C646.07 129.77 646.72 128.5 647.92 126.53V126.54Z" fill="black"/>
<path d="M949.04 75.85H977.26V103.38H1002.17V126.31H977.72C977.55 128.12 977.32 129.39 977.32 130.65C977.29 146.47 977.27 162.29 977.32 178.11C977.34 185.68 980.15 188.74 987.72 189.15C992.35 189.4 997.01 189.2 1002.07 189.2V213.46C991.42 212.72 980.68 213.02 970.39 210.99C957.03 208.36 949.58 197.53 949.28 182.58C948.95 165.93 949.06 149.27 948.98 132.62C948.98 130.82 948.98 129.03 948.98 126.74H935.33V103.51H949.06V75.86L949.04 75.85Z" fill="black"/>
<path d="M1050.68 212.46H1023.55V104.12H1050.5V119.54C1060.41 108.48 1070.86 101.38 1085.25 102.12V131.41C1083 131.41 1080.75 131.41 1078.5 131.41C1058.77 131.32 1050.93 138.93 1050.72 158.77C1050.55 174.75 1050.68 190.74 1050.67 206.72C1050.67 208.52 1050.67 210.33 1050.67 212.45L1050.68 212.46Z" fill="black"/>
<path d="M185.15 126.82H302.38V157.74H174.66C174.6 157.94 174.54 158.13 174.47 158.33C177.13 159.78 179.77 161.25 182.45 162.66C199.56 171.68 216.69 180.68 233.78 189.75C234.62 190.19 235.65 191.3 235.66 192.11C235.79 202.41 235.74 212.72 235.74 223.65C217 213.83 198.67 204.22 179.78 194.32V311.02H148.13V184.53C147.93 184.47 147.72 184.4 147.52 184.34C144.4 190.37 141.26 196.4 138.18 202.44C130.57 217.35 123.01 232.29 115.34 247.17C114.87 248.09 113.66 249.23 112.78 249.25C102.37 249.39 91.96 249.34 80.98 249.34C91.23 229.11 101.3 209.22 111.63 188.82H0V158.33H123.06V182.76H173.12V133.27H123.24V157.79C118.86 155.56 114.93 153.6 111.03 151.57C95.34 143.41 79.66 135.25 64.02 127C63.02 126.48 61.78 125.19 61.76 124.24C61.6 113.93 61.66 103.62 61.66 92.53C79.99 101.93 97.84 111.09 116.1 120.46V0H148.55V131.54C148.76 131.58 148.96 131.61 149.17 131.65C151.47 127.28 153.81 122.94 156.06 118.54C164.05 102.89 172.04 87.23 179.96 71.53C181 69.46 182.15 68.52 184.68 68.58C193.32 68.79 201.97 68.65 210.62 68.65C211.62 68.65 212.62 68.65 214.24 68.65C204.45 88.23 194.91 107.32 185.16 126.82" fill="#5B8CFF"/>
</g>
<defs>
<clipPath id="clip0_977_3">
<rect width="1210.43" height="311.01" fill="white"/>
</clipPath>
</defs>
</svg>
