<svg width="311" height="311" viewBox="0 0 311 311" fill="none" xmlns="http://www.w3.org/2000/svg">
<path d="M185.15 126.82H302.38V157.74H174.66C174.6 157.94 174.54 158.13 174.47 158.33C177.13 159.78 179.77 161.25 182.45 162.66C199.56 171.68 216.69 180.68 233.78 189.75C234.62 190.19 235.65 191.3 235.66 192.11C235.79 202.41 235.74 212.72 235.74 223.65C217 213.83 198.67 204.22 179.78 194.32V311.02H148.13V184.53C147.93 184.47 147.72 184.4 147.52 184.34C144.4 190.37 141.26 196.4 138.18 202.44C130.57 217.35 123.01 232.29 115.34 247.17C114.87 248.09 113.66 249.23 112.78 249.25C102.37 249.39 91.96 249.34 80.98 249.34C91.23 229.11 101.3 209.22 111.63 188.82H0V158.33H123.06V182.76H173.12V133.27H123.24V157.79C118.86 155.56 114.93 153.6 111.03 151.57C95.34 143.41 79.66 135.25 64.02 127C63.02 126.48 61.78 125.19 61.76 124.24C61.6 113.93 61.66 103.62 61.66 92.53C79.99 101.93 97.84 111.09 116.1 120.46V0H148.55V131.54C148.76 131.58 148.96 131.61 149.17 131.65C151.47 127.28 153.81 122.94 156.06 118.54C164.05 102.89 172.04 87.23 179.96 71.53C181 69.46 182.15 68.52 184.68 68.58C193.32 68.79 201.97 68.65 210.62 68.65C211.62 68.65 212.62 68.65 214.24 68.65C204.45 88.23 194.91 107.32 185.16 126.82" fill="#155dfb"/>
</svg>
